<?xml version="1.0" standalone="no"?><!DOCTYPE svg PUBLIC "-//W3C//DTD SVG 1.1//EN" "http://www.w3.org/Graphics/SVG/1.1/DTD/svg11.dtd"><svg t="1739461528046" class="icon" viewBox="0 0 1024 1024" version="1.1" xmlns="http://www.w3.org/2000/svg" p-id="4233" xmlns:xlink="http://www.w3.org/1999/xlink" width="200" height="200"><path d="M977.92 517.12c0 254.464-206.336 460.8-460.8 460.8s-460.8-206.336-460.8-460.8 206.336-460.8 460.8-460.8 460.8 206.336 460.8 460.8" fill="#1A1918" p-id="4234"></path><path d="M463.872 544.256l180.224-141.824-119.296 293.888-60.928-152.064z m272.896-209.92c2.048-5.632 3.072-10.24 3.072-13.824 0-19.456-15.872-32.768-33.792-32.768-9.216 0-15.872 3.584-25.6 11.264L442.88 491.008l-79.872-199.68H294.4l201.216 484.352c5.12 12.8 16.384 19.456 29.184 19.456s23.04-6.656 28.16-19.456l183.808-441.344z" fill="#FFFFFF" p-id="4235"></path></svg>