<?xml version="1.0" standalone="no"?><!DOCTYPE svg PUBLIC "-//W3C//DTD SVG 1.1//EN" "http://www.w3.org/Graphics/SVG/1.1/DTD/svg11.dtd"><svg t="1712765009084" class="icon" viewBox="0 0 1024 1024" version="1.1" xmlns="http://www.w3.org/2000/svg" p-id="7510" xmlns:xlink="http://www.w3.org/1999/xlink" width="200" height="200"><path d="M942.3 598.8V127.9H80.4v766.9h862z" fill="#FFFFFF" p-id="7511"></path><path d="M942.4 910.8h-862c-8.8 0-16-7.2-16-16V127.9c0-8.8 7.2-16 16-16h861.9c8.8 0 16 7.2 16 16v470.9l0.1 295.9c0 4.2-1.7 8.3-4.7 11.3-3 3.1-7 4.8-11.3 4.8z m-846-32h830l-0.1-279.9v-455H96.4v734.9z" fill="#00365B" p-id="7512"></path><path d="M80.4 127.9h861.9v114.9H80.4z" fill="#E88F5F" p-id="7513"></path><path d="M942.3 258.8H80.4c-8.8 0-16-7.2-16-16V127.9c0-8.8 7.2-16 16-16h861.9c8.8 0 16 7.2 16 16v114.9c0 8.8-7.1 16-16 16z m-845.9-32h829.9v-82.9H96.4v82.9z" fill="#00365B" p-id="7514"></path><path d="M150.9 185.4m-16 0a16 16 0 1 0 32 0 16 16 0 1 0-32 0Z" fill="#FFFFFF" p-id="7515"></path><path d="M212.4 185.4m-16 0a16 16 0 1 0 32 0 16 16 0 1 0-32 0Z" fill="#FFFFFF" p-id="7516"></path><path d="M274 185.4m-16 0a16 16 0 1 0 32 0 16 16 0 1 0-32 0Z" fill="#FFFFFF" p-id="7517"></path><path d="M457.3 718.5h242.8v64H457.3zM442.6 632.5c0-44.7-24.8-72.6-68.1-88.5l-37.3-15.4c-32.3-11.9-50.7-17.4-50.7-32.3s12.9-21.9 31.8-21.9c30.8 0 49.2 8 72.6 23.4l42.7-53.7c-21.2-19.9-46.8-32.7-73-38.8v-51.6h-64V403c-58.7 9.5-96.6 50.1-96.6 98.3 0 46.7 30.8 76 68.1 90l40.3 16.9c29.8 12.4 46.7 16.4 46.7 35.3 0 10.4-9.9 18.9-35.8 18.9-29.3 0-58.1-12.9-82.5-31.3l-48.7 58.6c31.6 27.2 71 42.1 108.6 45.5v47.4h64V730c53.3-14.8 81.9-54.3 81.9-97.5z" fill="#00365B" p-id="7518"></path></svg>