<?xml version="1.0" standalone="no"?><!DOCTYPE svg PUBLIC "-//W3C//DTD SVG 1.1//EN" "http://www.w3.org/Graphics/SVG/1.1/DTD/svg11.dtd"><svg t="1712152721694" class="icon" viewBox="0 0 1024 1024" version="1.1" xmlns="http://www.w3.org/2000/svg" p-id="27415" xmlns:xlink="http://www.w3.org/1999/xlink" width="200" height="200"><path d="M511.998969 519.999404m-504.000596 0a504.000596 504.000596 0 1 0 1008.001192 0 504.000596 504.000596 0 1 0-1008.001192 0Z" fill="#E1E6E9" p-id="27416"></path><path d="M668.800483 20.800306s-71.999791-23.999243-156.799452 33.600177c-86.400161-59.199919-156.799452-33.600177-156.799452-33.600177-121.600838 43.199049-203.201563 33.600177-203.201563 33.600177v566.399453s81.600725 9.600935 203.199501-33.600178c0 0 71.999791-23.999243 156.799452 33.600178 86.400161-59.199919 156.799452-33.600177 156.799452-33.600178 121.600838 43.199049 203.1995 33.600177 203.1995 33.600178V54.400483c0.002062 0-81.598663 9.598872-203.197438-33.600177z" fill="#FDBF5E" p-id="27417"></path><path d="M511.998969 639.999742l-9.600935-6.399935c-44.799549-30.399178-84.799662-36.799114-110.399404-36.799114-20.800306 0-33.600177 4.799436-33.600177 4.799436-86.400161 30.399178-153.600516 35.200677-187.200693 35.200677-14.400371 0-22.400806-1.6005-22.400805-1.6005l-14.400371-1.600499V36.799114l17.599307 1.600499s78.399726 8.000435 195.199066-31.999677C352.00058 4.799436 367.999388 0 393.59913 0c28.800741 0 70.399291 6.399936 118.399839 36.799114C559.999517 6.399936 601.600129 0 630.398808 0c25.599742 0 41.600612 4.799436 43.199049 6.399936 116.799339 41.600612 195.199065 31.999678 195.199065 31.999677l17.599307-1.600499V635.198244l-14.40037 1.600499s-8.000435 1.6005-22.400806 1.6005c-31.999678 0-99.200032-4.799436-187.200693-35.200677 0 0-12.799871-4.799436-33.600177-4.799436-25.599742 0-65.599855 6.399936-110.399404 36.799114l-6.39581 4.801498z m118.399839-73.60029c25.599742 0 41.600612 4.799436 43.199049 6.399936 88.000661 30.399178 153.600516 33.600177 182.399194 33.600177V70.399291c-30.399178 0-99.200032-3.200999-192.000129-35.200677 0 0-62.400918-22.400806-142.399081 31.999678l-9.600935 6.399936-9.600934-6.399936c-43.199049-28.800741-83.199162-35.200677-108.800967-35.200677-20.800306 0-33.600177 4.799436-33.600177 4.799436-92.800097 31.999678-161.600951 35.200677-192.000129 35.200677v534.399774c27.200242 0 94.400596-3.200999 182.399194-33.600177 1.6005 0 17.599307-6.399936 43.199049-6.399935 28.800741 0 70.399291 6.399936 118.399839 36.799113 48.006735-30.397116 89.607348-36.797051 118.406027-36.797051z" fill="#193651" p-id="27418"></path><path d="M393.59913 75.20079c-11.199372 0-19.199807 1.6005-20.800306 1.600499-65.599855 22.400806-121.600838 31.999678-161.600951 35.200677v447.999613c30.399178-3.200999 73.60029-11.199372 123.199275-28.800741 6.399936-1.6005 27.200242-8.000435 57.59942-8.000435 28.800741 0 71.999791 6.399936 118.399839 30.399178V126.400274l-33.600178-22.400806c-33.596052-23.999243-63.997293-28.798679-83.197099-28.798678zM651.199114 76.799227c-1.6005 0-9.600935-1.6005-20.800306-1.6005-19.199807 0-49.598985 4.799436-84.799662 28.800741l-33.600177 22.400806v425.60087c46.400048-23.999243 89.599098-30.399178 118.399839-30.399178 31.999678 0 52.799984 6.399936 57.59942 8.000435 51.199484 17.599307 92.800097 25.599742 123.199274 28.800741V113.600403c-38.397551-3.200999-94.398534-12.799871-159.998388-36.801176z" fill="#FFFFFF" p-id="27419"></path><path d="M427.199307 182.399194c-30.399178-22.400806-52.799984-14.400371-54.400483-14.40037-54.400483 22.400806-91.199597 17.599307-92.800097 17.599307-8.000435-1.6005-12.799871-8.000435-11.199372-16.00087 1.6005-8.000435 8.000435-12.799871 16.000871-11.199372 0 0 31.999678 3.200999 80.000225-16.00087 1.6005 0 38.399613-14.400371 80.000226 19.199807 6.399936 4.799436 6.399936 12.799871 3.200999 19.199806-6.401998 6.404061-16.00087 6.404061-20.802369 1.602562zM427.199307 273.600854c-28.800741-22.400806-52.799984-14.400371-54.400483-14.400371-54.400483 22.400806-91.199597 17.599307-92.800097 17.599308-8.000435-1.6005-12.799871-8.000435-11.199372-16.000871 1.6005-8.000435 8.000435-12.799871 16.000871-11.199371 0 0 31.999678 3.200999 80.000225-16.00087 1.6005 0 38.399613-14.400371 80.000226 19.199806 6.399936 4.799436 6.399936 12.799871 3.200999 19.199807-6.401998 4.801499-16.00087 4.801499-20.802369 1.602562zM427.199307 363.199952c-30.399178-22.400806-52.799984-14.400371-54.400483-14.400371-54.400483 22.400806-91.199597 17.599307-92.800097 17.599307-8.000435-1.6005-12.799871-8.000435-11.199372-16.00087 1.6005-8.000435 8.000435-12.799871 16.000871-11.199372 0 0 31.999678 3.200999 80.000225-16.00087 1.6005 0 38.399613-14.400371 80.000226 19.199807 6.399936 4.799436 6.399936 12.799871 3.200999 19.199807-6.401998 4.801499-16.00087 6.401998-20.802369 1.602562zM427.199307 452.799049c-28.800741-22.400806-52.799984-14.400371-54.400483-14.40037-54.400483 22.400806-91.199597 17.599307-92.800097 17.599307-8.000435-1.6005-12.799871-8.000435-11.199372-16.00087 1.6005-8.000435 8.000435-12.799871 16.000871-11.199372 0 0 31.999678 3.200999 80.000225-16.00087 1.6005 0 38.399613-14.400371 80.000226 19.199807 6.399936 4.799436 6.399936 12.799871 3.200999 19.199806-6.401998 4.803561-16.00087 6.404061-20.802369 1.602562zM596.800693 182.399194c30.399178-22.400806 52.799984-14.400371 54.400483-14.40037 54.400483 22.400806 91.199597 17.599307 92.800097 17.599307 8.000435-1.6005 12.799871-8.000435 11.199372-16.00087-1.6005-8.000435-8.000435-12.799871-16.000871-11.199372 0 0-31.999678 3.200999-80.000225-16.00087-1.6005 0-38.399613-14.400371-80.000226 19.199807-6.399936 4.799436-6.399936 12.799871-3.200999 19.199806 6.401998 6.404061 16.00087 6.404061 20.802369 1.602562zM596.800693 273.600854c28.800741-22.400806 52.799984-14.400371 54.400483-14.400371 54.400483 22.400806 91.199597 17.599307 92.800097 17.599308 8.000435-1.6005 12.799871-8.000435 11.199372-16.000871-1.6005-8.000435-8.000435-12.799871-16.000871-11.199371 0 0-31.999678 3.200999-80.000225-16.00087-1.6005 0-38.399613-14.400371-80.000226 19.199806-6.399936 4.799436-6.399936 12.799871-3.200999 19.199807 6.401998 4.801499 16.00087 4.801499 20.802369 1.602562zM596.800693 363.199952c30.399178-22.400806 52.799984-14.400371 54.400483-14.400371 54.400483 22.400806 91.199597 17.599307 92.800097 17.599307 8.000435-1.6005 12.799871-8.000435 11.199372-16.00087-1.6005-8.000435-8.000435-12.799871-16.000871-11.199372 0 0-31.999678 3.200999-80.000225-16.00087-1.6005 0-38.399613-14.400371-80.000226 19.199807-6.399936 4.799436-6.399936 12.799871-3.200999 19.199807 6.401998 4.801499 16.00087 6.401998 20.802369 1.602562zM596.800693 452.799049c28.800741-22.400806 52.799984-14.400371 54.400483-14.40037 54.400483 22.400806 91.199597 17.599307 92.800097 17.599307 8.000435-1.6005 12.799871-8.000435 11.199372-16.00087s-8.000435-12.799871-16.000871-11.199372c0 0-31.999678 3.200999-80.000225-16.00087-1.6005 0-38.399613-14.400371-80.000226 19.199807-6.399936 4.799436-6.399936 12.799871-3.200999 19.199806 6.401998 4.803561 16.00087 6.404061 20.802369 1.602562zM496.000161 620.799936H527.999839v401.599564h-31.999678z" fill="#193651" p-id="27420"></path><path d="M582.400322 921.598969c107.200467 25.599742 196.799565-43.199049 200.000564-153.600516-107.200467-25.59768-196.801627 43.201112-200.000564 153.600516z" fill="#4FBF9F" p-id="27421"></path><path d="M625.599372 942.399275c-16.00087 0-30.399178-1.6005-46.400049-4.799436l-12.799871-3.200999v-12.799871c3.200999-100.800532 75.20079-174.400822 172.800322-174.400822 16.00087 0 30.399178 1.6005 46.400049 4.799436l12.799871 3.200999v12.799871c-3.198937 100.800532-76.799227 174.400822-172.800322 174.400822z m-27.200242-33.600177c9.600935 1.6005 17.599307 1.6005 27.200242 1.600499 76.799227 0 132.800209-52.799984 140.800644-129.59921-9.600935-1.6005-17.599307-1.6005-27.200242-1.6005-76.799227-1.6005-132.800209 51.199484-140.800644 129.599211z" fill="#193651" p-id="27422"></path><path d="M594.841318 930.869903l-74.235539 50.178548-17.918995-26.51343 74.233477-50.176484z" fill="#193651" p-id="27423"></path><path d="M441.599678 870.399484c-107.200467 25.599742-196.799565-43.199049-200.000564-153.600515 107.200467-23.999243 196.801627 44.801611 200.000564 153.600515z" fill="#4FBF9F" p-id="27424"></path><path d="M398.400628 891.199791c-95.999033 0-169.599323-73.60029-172.800322-174.400822v-12.799871l12.799871-3.200999c16.00087-3.200999 31.999678-4.799436 46.400049-4.799436 95.999033 0 169.599323 73.60029 172.800322 174.400821v12.799871l-12.799871 3.200999c-14.400371 3.198937-30.401241 4.799436-46.400049 4.799437z m-139.200145-161.600951c8.000435 76.799227 63.999355 129.59921 140.800645 129.59921 8.000435 0 17.599307 0 27.200242-1.600499-8.000435-76.799227-63.999355-129.59921-140.800645-129.599211-9.600935 0.002062-19.199807 0.002062-27.200242 1.6005z" fill="#193651" p-id="27425"></path><path d="M520.201529 902.995224l-17.918995 26.515492-74.24379-50.168234 17.916932-26.517555z" fill="#193651" p-id="27426"></path></svg>