<?xml version="1.0" standalone="no"?><!DOCTYPE svg PUBLIC "-//W3C//DTD SVG 1.1//EN" "http://www.w3.org/Graphics/SVG/1.1/DTD/svg11.dtd"><svg t="1722770636743" class="icon" viewBox="0 0 1024 1024" version="1.1" xmlns="http://www.w3.org/2000/svg" p-id="12013" xmlns:xlink="http://www.w3.org/1999/xlink" width="200" height="200"><path d="M248.8 779.1c-31 1.7-65.9-2.1-99.1-16.9C69.2 726.4 21.8 644.8 30.4 560.5c9.5-93.1 75.2-164.4 164.9-179.6 16.9-2.9 22.2-9.1 27.1-24.9 37.2-119.3 117.7-193.2 240.9-215C590 118.5 713.2 180 775 292c3.7 6.6 8.6 7.3 14.3 8.2 98.1 15.7 174.2 85.6 197.8 181.7 34.4 140-65.2 281.3-208.4 295.6-14.9 1.5-30.1 1.5-45.1 1.6-12.3 0-20.6-8.2-20.8-19.6-0.2-11.9 7.9-20.4 21-20.2 31 0.4 61.4-2.2 90.6-13.5 86-33.2 137.5-118.3 127.8-211.7-9.1-88-79.9-160.7-169.8-174.1-31.2-4.6-26.2 0.7-43-29.6-53.9-97.4-162.1-147.4-264.9-131C359.6 197.8 274.9 281 255 391.8c-3.9 21.7-7.7 25.1-29.4 25.9-84.1 2.9-150.8 68.9-155.9 154.2-4.8 79.8 55.9 154 137.2 165 26.6 3.6 53.9 1.7 80.8 2.3 13.8 0.3 22 7.1 22.7 18.7 0.6 11.9-7.5 20.9-20 21.3-12.2 0.2-24.5-0.1-41.6-0.1z" fill="#5485ED" p-id="12014"></path><path d="M499.4 657.6c0-68.1-0.1-136.2 0.1-204.2 0-6.9-1.1-10.7-8.8-13.6-37.9-14.2-58.9-54.9-49.1-93.6 9.9-39.1 46.9-65.4 85.7-60.9 41.7 4.9 72 37.8 72.7 79 0.6 32.3-19.7 63.5-50.2 74.9-8.6 3.2-10.1 7.5-10.1 15.5 0.2 134.3 0.2 268.6 0.1 402.8 0 3.8 0.2 7.6-0.3 11.3-1.5 11.3-9.5 18.4-20.2 18.3-10.6-0.1-18.5-7.4-19.8-18.8-0.4-3.1-0.2-6.3-0.2-9.4 0.1-67 0.1-134.2 0.1-201.3z m20.3-252.8c22.6 0 39.9-17.2 39.9-39.7 0-22.4-17.5-39.9-39.9-39.9s-39.9 17.5-39.9 39.9c0 22.6 17.3 39.7 39.9 39.7zM388.2 567c13.8 13.8 27.1 27.5 41 40.6 7.1 6.7 10.3 14.2 10.2 24.1-0.4 37.3 0.2 74.7-0.5 112-0.1 6.4-3.3 14.9-8 18.5-4.7 3.5-13.7 4-19.9 2.3-8.6-2.3-11.8-10.4-11.8-19.4 0-33.9 0.3-67.8-0.3-101.6-0.1-4.9-2.6-10.8-5.9-14.5-8.5-9.7-18.3-18.1-27-27.6-4.6-5-8.2-5.2-14.3-2.4-39 17.9-84.9 1.6-104.4-36.5-19.5-38-5.6-84.7 31.6-106.2 29.9-17.3 67.6-13.2 93.6 10 25.8 23 33.8 60.3 19.8 92-1.2 2.4-2.4 5-4.1 8.7z m-109.5-41.4c-0.2 22 17.8 40.3 39.8 40.6 21.6 0.2 40.3-18.2 40.6-39.9 0.2-21.8-18-40.3-39.9-40.4-22.2-0.3-40.4 17.6-40.5 39.7zM600.2 686.6c0-18.5 0.3-37-0.1-55.5-0.2-9.1 2.7-16.3 9.3-22.6 12.5-11.9 24.3-24.5 36.8-36.4 4.1-3.9 4.4-6.8 2.1-12-13.7-30.6-10.4-59.7 10.9-85.4 21.1-25.4 49.2-34.4 81.2-26.4 32.1 8 52.3 29.5 58.8 61.8 6.3 31.1-3.2 58.1-28.1 78.1-25.1 20.2-53.4 23.7-83 10.8-6.6-2.9-10.3-2.4-15.1 2.8-10.3 11.4-25.6 20.3-31 33.5-5.5 13.5-1.6 30.8-1.7 46.5-0.1 20.7 0.1 41.4-0.1 62.1-0.1 14.3-8 23.1-20.5 22.9-12.1-0.2-19.4-8.5-19.5-22.7-0.1-19.2 0-38.4 0-57.5z m160.6-160.4c0.2-22.1-17.7-40.3-39.8-40.5-22-0.2-40.3 17.7-40.6 39.7-0.3 21.7 18 40.4 39.9 40.7 21.7 0.3 40.3-17.9 40.5-39.9z" fill="#5485ED" p-id="12015"></path></svg>