<?xml version="1.0" standalone="no"?><!DOCTYPE svg PUBLIC "-//W3C//DTD SVG 1.1//EN" "http://www.w3.org/Graphics/SVG/1.1/DTD/svg11.dtd"><svg t="1712581304307" class="icon" viewBox="0 0 1024 1024" version="1.1" xmlns="http://www.w3.org/2000/svg" p-id="29112" xmlns:xlink="http://www.w3.org/1999/xlink" width="200" height="200"><path d="M597.85 511.8m-129.76 0a129.76 129.76 0 1 0 259.52 0 129.76 129.76 0 1 0-259.52 0Z" fill="#1677FF" opacity=".35" p-id="29113"></path><path d="M701.05 763.34m-49.44 0a49.44 49.44 0 1 0 98.88 0 49.44 49.44 0 1 0-98.88 0Z" fill="#1677FF" opacity=".35" p-id="29114"></path><path d="M754.38 306m-49.44 0a49.44 49.44 0 1 0 98.88 0 49.44 49.44 0 1 0-98.88 0Z" fill="#1677FF" opacity=".35" p-id="29115"></path><path d="M773.38 382.58c55.34 0 100.19-44.85 100.19-100.19 0-55.26-44.93-100.19-100.19-100.19-55.34 0-100.19 44.85-100.19 100.19 0 14.72 3.21 28.73 8.84 41.33 2.11 4.7 1.1 10.25-2.58 13.93l-18.94 18.94c-4.46 4.46-11.66 4.93-16.59 0.94-29.82-23.56-67.55-37.57-108.49-37.57-14.72 0-29.04 1.8-42.74 5.24-5.4 1.33-11.04-1.1-13.85-5.87l-5.17-8.92c-2.66-4.54-2.11-10.25 1.25-14.32 14.56-17.69 23.25-40.39 22.93-65.12-0.7-54.24-45.16-98.39-99.41-98.86-55.26-0.47-100.27 43.91-100.97 98.86-0.7 54.4 44.22 100.66 98.63 101.44 7.36 0.08 14.48-0.55 21.45-1.96 5.32-1.1 10.65 1.33 13.38 6.03l1.72 2.97c3.13 5.48 1.72 12.45-3.29 16.2-33.19 25.28-57.14 62.15-65.75 104.57-1.17 5.79-6.34 9.94-12.29 9.94h-73.66c-5.17 0-9.86-3.13-11.66-7.98-14.17-37.57-50.33-64.34-92.75-64.81-55.25-0.47-100.81 44.38-101.2 99.56-0.39 55.65 44.62 100.9 100.19 100.9 44.38 0 82.03-28.88 95.18-68.8 1.72-5.17 6.5-8.69 11.9-8.69h72.01c5.95 0 11.11 4.23 12.29 10.1 7.44 36.55 26.22 68.88 52.44 93.3 4.23 3.91 5.17 10.33 2.27 15.34l-16.99 29.43c-2.9 4.93-8.69 7.36-14.25 5.79-8.69-2.43-17.77-3.68-27.24-3.68-54.56 0.08-99.41 44.46-100.03 99.09-0.63 56.12 44.93 101.76 101.05 101.29 54.4-0.47 98.86-44.85 99.33-99.25 0.23-21.92-6.65-42.19-18.39-58.78a12.523 12.523 0 0 1-0.63-13.46l19.49-33.74c3.05-5.24 9.39-7.59 15.11-5.48 18.55 6.73 38.59 10.33 59.49 10.33 27.32 0 53.15-6.26 76.16-17.38 5.95-2.9 13.07-0.7 16.36 5.01l28.96 50.1c-20.59 18.39-33.66 45.16-33.66 74.99 0 55.5 45.4 100.58 100.9 100.19 54.56-0.39 98.78-44.38 99.49-98.86 0.7-54.87-44.62-101.21-99.49-101.52-4.85 0-9.63 0.31-14.32 0.94-5.09 0.7-10.02-1.72-12.6-6.11l-30.68-53.15c-2.66-4.62-2.11-10.41 1.33-14.4 26.77-30.76 42.97-70.99 42.97-115.06 0-30.45-7.75-59.1-21.45-84.07-2.66-4.85-1.72-10.88 2.19-14.79l22.23-22.23c3.84-3.84 9.71-4.7 14.64-2.27 13.62 6.73 28.88 10.57 45.08 10.57z m0-150.29c27.63 0 50.1 22.46 50.1 50.1s-22.46 50.1-50.1 50.1c-27.63 0-50.1-22.46-50.1-50.1s22.47-50.1 50.1-50.1zM172.24 547.73c-27.63 0-50.1-22.46-50.1-50.1s22.46-50.1 50.1-50.1 50.1 22.46 50.1 50.1-22.47 50.1-50.1 50.1zM360.1 820.91c-27.63 0-50.1-22.46-50.1-50.1 0-27.63 22.46-50.1 50.1-50.1s50.1 22.46 50.1 50.1c-0.01 27.64-22.47 50.1-50.1 50.1z m363.19-87.67c27.63 0 50.1 22.46 50.1 50.1 0 27.63-22.46 50.1-50.1 50.1s-50.1-22.46-50.1-50.1c0-27.63 22.47-50.1 50.1-50.1zM397.67 282.38c-27.63 0-50.1-22.46-50.1-50.1s22.46-50.1 50.1-50.1 50.1 22.46 50.1 50.1-22.47 50.1-50.1 50.1z m226.29 301.44c-23.64 23.72-55.1 36.71-88.53 36.71-33.42 0-64.89-12.99-88.53-36.71-23.72-23.64-36.71-55.1-36.71-88.53s12.99-64.89 36.71-88.53c23.64-23.72 55.1-36.71 88.53-36.71 33.42 0 64.89 12.99 88.53 36.71 23.72 23.64 36.71 55.1 36.71 88.53s-12.99 64.89-36.71 88.53z" fill="#1677FF" p-id="29116"></path></svg>