<?xml version="1.0" standalone="no"?><!DOCTYPE svg PUBLIC "-//W3C//DTD SVG 1.1//EN" "http://www.w3.org/Graphics/SVG/1.1/DTD/svg11.dtd"><svg t="1712327597704" class="icon" viewBox="0 0 1068 1024" version="1.1" xmlns="http://www.w3.org/2000/svg" p-id="7290" xmlns:xlink="http://www.w3.org/1999/xlink" width="208.59375" height="200"><path d="M577.313391 53.025391l330.707479 190.953739a89.043478 89.043478 0 0 1 44.521739 77.111653v381.818434a89.043478 89.043478 0 0 1-44.521739 77.111653l-330.707479 190.953739a89.043478 89.043478 0 0 1-89.043478 0L157.606957 780.02087a89.043478 89.043478 0 0 1-44.52174-77.111653V321.090783a89.043478 89.043478 0 0 1 44.52174-77.111653l330.662956-190.953739a89.043478 89.043478 0 0 1 89.043478 0z m-52.090434 56.186435l-3.56174 1.647304L190.998261 301.857391a22.26087 22.26087 0 0 0-10.774261 15.36l-0.356174 3.917913v381.818435a22.26087 22.26087 0 0 0 7.92487 17.051826l3.205565 2.226087 330.662956 190.953739a22.26087 22.26087 0 0 0 18.699131 1.647305l3.561739-1.647305 330.707478-190.953739a22.26087 22.26087 0 0 0 10.774261-15.36l0.356174-3.917913V321.090783a22.26087 22.26087 0 0 0-7.92487-17.051826l-3.205565-2.226087-330.707478-190.95374a22.26087 22.26087 0 0 0-18.69913-1.647304z m192.512 550.422261a33.391304 33.391304 0 0 1 33.391304 33.391304c0 69.542957-107.78713 109.657043-238.502957 109.657044-130.671304 0-238.502957-40.069565-238.502956-109.657044a33.391304 33.391304 0 0 1 66.782609 0c0 2.404174 11.842783 12.777739 38.333217 22.617044 34.237217 12.733217 82.009043 20.257391 133.38713 20.257391s99.194435-7.568696 133.431653-20.257391c26.490435-9.839304 38.288696-20.21287 38.288695-22.617044a33.391304 33.391304 0 0 1 33.391305-33.391304z m5.431652-202.173217l4.496695 0.578782c49.285565 9.705739 70.566957 48.038957 56.498087 97.413565-12.332522 43.186087-45.32313 72.347826-94.653217 86.372174a33.391304 33.391304 0 0 1-42.384696-28.93913c-8.993391 42.295652-69.721043 62.864696-141.445565 62.864696-77.734957 0-142.60313-24.130783-142.60313-74.039653a33.391304 33.391304 0 0 1 65.580521-8.859826l0.222609 0.934957c1.825391 1.202087 4.006957 2.359652 6.767304 3.561739l4.452174 1.780869c16.339478 6.099478 39.980522 9.794783 65.580522 9.794783 25.644522 0 49.285565-3.695304 65.625044-9.794783 3.205565-1.157565 5.965913-2.404174 8.147478-3.561739l3.116522-1.780869 0.178086-0.934957a33.391304 33.391304 0 0 1 27.692522-24.219826l4.496696-0.311652a33.391304 33.391304 0 0 1 33.391304 32.322783 33.03513 33.03513 0 0 1 22.884174-23.01774c28.40487-8.102957 43.186087-21.192348 48.706783-40.514782l2.359652-8.281044c0.890435-4.185043-0.801391-3.962435-7.479652-5.298087a33.391304 33.391304 0 0 1 8.370087-66.07026z m-170.073044-291.394783c21.949217 55.429565 16.784696 102.266435-19.456 132.36313l-5.965913 4.630261c-30.586435 21.949217-40.069565 42.295652-34.949565 70.566957 2.849391 15.493565 7.568696 24.175304 13.979826 28.538435l2.849391 1.647304a33.391304 33.391304 0 1 1-28.271304 60.505043 87.707826 87.707826 0 0 1-14.692174-8.637217 32.812522 32.812522 0 0 1-13.401043 5.520696 169.939478 169.939478 0 0 0-42.47374 12.288l-3.250086 1.736347 1.914434 1.024 4.541218 2.092522 5.164521 2.048c21.904696 8.147478 53.025391 13.04487 86.594783 13.04487l11.264-0.267131a33.257739 33.257739 0 0 1 15.849739-4.006956c4.096 0 17.586087-21.370435 15.003826-28.582957-15.09287-41.850435-14.157913-64.066783 10.106435-103.245913a33.391304 33.391304 0 0 1 56.765217 35.172174l-5.65426 9.438609c-6.678261 12.109913-5.431652 16.473043 1.602782 36.018087 2.626783 7.212522 3.917913 14.825739 4.006957 22.617043a33.213217 33.213217 0 0 1 25.466434-18.476521l4.541218-0.311653a33.391304 33.391304 0 0 1 33.391304 33.391305c0 55.963826-78.180174 85.036522-172.29913 85.036521-94.163478 0-172.29913-29.072696-172.299131-85.036521 0-40.514783 39.17913-65.491478 96.345044-77.467826a137.037913 137.037913 0 0 1-2.760348-12.154435c-9.928348-54.984348 11.130435-100.485565 61.751652-136.770783 12.911304-9.260522 15.137391-25.466435 2.226087-58.145391a33.391304 33.391304 0 1 1 62.107826-24.576z" fill="#E14C46" p-id="7291"></path></svg>