<?xml version="1.0" standalone="no"?><!DOCTYPE svg PUBLIC "-//W3C//DTD SVG 1.1//EN" "http://www.w3.org/Graphics/SVG/1.1/DTD/svg11.dtd"><svg t="1712581161728" class="icon" viewBox="0 0 1043 1024" version="1.1" xmlns="http://www.w3.org/2000/svg" p-id="23236" xmlns:xlink="http://www.w3.org/1999/xlink" width="203.7109375" height="200"><path d="M498.10798 496.727327m-479.629457 0a479.629457 479.629457 0 1 0 959.258914 0 479.629457 479.629457 0 1 0-959.258914 0Z" fill="#B8D9FF" p-id="23237"></path><path d="M503.528005 10.35276c-22.72307 0-45.031516 1.692689-66.908241 4.748934 233.185029 32.571443 412.704118 232.69774 412.704119 474.876249 0 242.178509-179.519089 442.31763-412.704119 474.880524a482.41641 482.41641 0 0 0 66.908241 4.744659c264.884481 0 479.620908-214.723604 479.620908-479.629457 0-264.875932-214.736427-479.620908-479.620908-479.620909z" fill="#6E6E96" opacity=".15" p-id="23238"></path><path d="M149.04641 492.85466c0-247.406183 174.043496-451.016171 397.529758-476.812583a485.280303 485.280303 0 0 0-51.712508-2.816874C229.953532 13.225203 15.221379 227.965904 15.221379 492.85466c0 264.880206 214.727878 479.612359 479.633732 479.612359 17.474023 0 34.7215-0.978853 51.716783-2.804051-223.486262-25.804961-397.525484-229.4064-397.525484-476.808308z" fill="#FFFFFF" opacity=".21" p-id="23239"></path><path d="M498.10798 993.454655C224.212922 993.454655 1.380653 770.622386 1.380653 496.727327S224.212922 0 498.10798 0s496.727327 222.832269 496.727328 496.727327-222.836543 496.727327-496.727328 496.727328z m0-959.258914C243.067598 34.195741 35.576394 241.686945 35.576394 496.727327s207.491205 462.531587 462.531586 462.531587 462.531587-207.491205 462.531587-462.531587S753.144088 34.195741 498.10798 34.195741z" fill="#6E6E96" p-id="23240"></path><path d="M491.747573 26.155467S389.874187 133.02998 389.874187 493.209441c-0.739483 140.527396 16.264349 383.70613 101.873386 469.315166 0 0-267.645787-60.41105-267.645787-469.306618 0-441.052387 267.645787-467.062522 267.645787-467.062522z" fill="#FFFFFF" opacity=".21" p-id="23241"></path><path d="M397.021097 675.955753c-0.431721 0-0.867717-0.017098-1.303713-0.051294-107.7807-8.121488-206.106277-29.515199-276.865813-60.235797C41.099006 581.917466 0 539.083027 0 491.803141c0-53.392374 53.95233-101.997345 151.914577-136.859903 92.431087-32.892028 214.967249-51.007222 345.047846-51.007221 130.076323 0 252.616759 18.115194 345.043571 51.007221 97.962248 34.862558 151.910303 83.467528 151.910303 136.859903a17.09787 17.09787 0 0 1-34.19574 0c0-37.286181-47.087535-75.427255-129.182959-104.643241-88.83626-31.613962-207.307403-49.028143-333.579449-49.028143-126.272046 0-244.738915 17.414181-333.583724 49.028143C81.283275 416.375886 34.195741 454.51696 34.195741 491.803141c0 32.139722 34.901028 64.989005 98.274283 92.503752 67.344237 29.237358 161.750127 49.65649 265.82059 57.504413a17.09787 17.09787 0 0 1-1.269517 34.144447z" fill="#6E6E96" p-id="23242"></path><path d="M508.764228 993.322146c-124.31434 0-221.695261-218.745878-221.69526-497.99257C287.068968 218.480861 384.449888 1.615749 508.764228 1.615749c97.586095 0 180.079044 130.807257 210.171296 333.250315a17.09787 17.09787 0 0 1-14.400681 19.423181 17.085047 17.085047 0 0 1-19.427455-14.400682c-26.608561-179.036074-99.124903-304.081348-176.34316-304.081348-101.634015 0-187.49952 210.432038-187.49952 459.518087 0 251.40281 85.86123 463.796829 187.49952 463.796829a17.09787 17.09787 0 0 1 0 34.200015z" fill="#6E6E96" p-id="23243"></path><path d="M643.70062 972.599527h-11.994156c-0.008549 0 5.424299 1.184028 11.994156 0z m216.300883-0.012823c-31.819137 0.012823-34.606089-26.399112-34.798441-33.191241v-40.722852h-158.71953v39.128476c0 25.646805-12.729364 33.007439-22.791461 34.785617" fill="#F0F0FF" p-id="23244"></path><path d="M636.972608 990.351391c-6.920363 0-14.528915-1.594376-18.957263-7.510239l-20.449053-27.339495h44.343326c2.906638-0.76513 7.480318-3.458044 7.480319-17.70057v-56.226346h192.91527v57.555705c0.568504 16.371211 13.062773 16.354113 17.692021 16.358388l0.017098 34.19574h-0.029921c-34.858283 0-51.165377-25.014184-51.86639-49.801821l-0.008549-0.483015v-23.624982h-124.523789v22.030605c0 10.575033-2.662993 45.531629-36.858734 51.609922v0.012823a56.123759 56.123759 0 0 1-9.754335 0.923285z" fill="#6E6E96" p-id="23245"></path><path d="M467.536988 839.975622v-350.074619c0-23.915646 19.564238-43.484159 43.488433-43.484159h469.65285c23.924195 0 43.492708 19.568513 43.492708 43.484159v350.074619" fill="#9F9FBD" p-id="23246"></path><path d="M1024.170979 805.181456v49.998447c0 23.928469-19.568513 43.492708-43.479884 43.492708H511.025421c-23.919921 0-43.484159-19.572787-43.484158-43.492708V805.181456h556.629716z" fill="#F0F0FF" p-id="23247"></path><path d="M980.691095 915.770481H511.025421c-33.404964 0-60.582029-27.177065-60.582028-60.590578V788.083586h590.825456v67.096317c0 33.413513-27.177065 60.590578-60.577754 60.590578zM484.639133 822.279326v32.900577a26.420484 26.420484 0 0 0 26.386288 26.394838H980.691095a26.41621 26.41621 0 0 0 26.382013-26.394838v-32.900577H484.639133z" fill="#6E6E96" p-id="23248"></path><path d="M1041.268849 839.975622h-34.195741v-350.074619a26.41621 26.41621 0 0 0-26.394837-26.386289H511.025421a26.41621 26.41621 0 0 0-26.390562 26.386289v350.074619h-34.195741v-350.074619c0-33.404964 27.177065-60.582029 60.586303-60.582029h469.65285c33.409239 0 60.590578 27.177065 60.590578 60.582029v350.074619z" fill="#6E6E96" p-id="23249"></path><path d="M467.536988 784.022842h556.633991v12.284819H467.536988zM666.492081 898.672611h158.723805v27.754118h-158.723805z" fill="#6E6E96" opacity=".15" p-id="23250"></path><path d="M872.034129 989.697398h-313.686077a17.09787 17.09787 0 0 1 0-34.195741h313.686077a17.09787 17.09787 0 0 1 0 34.195741z" fill="#6E6E96" p-id="23251"></path><path d="M980.691095 866.019953H511.025421c-23.919921 0-43.484159-19.572787-43.484158-43.488433v29.023635c0 23.915646 19.559964 43.488433 43.484158 43.488433H980.691095c23.911372 0 43.488433-19.564238 43.488433-43.488433v-29.023635c-0.008549 23.924195-19.589885 43.488433-43.488433 43.488433z" fill="#6E6E96" opacity=".15" p-id="23252"></path><path d="M527.644551 498.676485h440.988271v254.843756H527.644551z" fill="#A2C8F2" p-id="23253"></path><path d="M685.115937 750.468271l278.515758-251.791786v81.317471l-184.716842 170.474315z" fill="#DEEFFF" opacity=".31" p-id="23254"></path><path d="M963.631695 579.993956l-184.716842 170.474315h184.716842z" fill="#FFFFFF" opacity=".31" p-id="23255"></path><path d="M968.632822 770.618111H527.644551a17.09787 17.09787 0 0 1-17.09787-17.09787v-254.843756a17.09787 17.09787 0 0 1 17.09787-17.097871h440.988271a17.09787 17.09787 0 0 1 17.09787 17.097871v254.843756a17.09787 17.09787 0 0 1-17.09787 17.09787z m-423.8904-34.19574h406.792529v-220.648016h-406.792529v220.648016z" fill="#6E6E96" p-id="23256"></path></svg>