<?xml version="1.0" standalone="no"?><!DOCTYPE svg PUBLIC "-//W3C//DTD SVG 1.1//EN" "http://www.w3.org/Graphics/SVG/1.1/DTD/svg11.dtd"><svg t="1712581258715" class="icon" viewBox="0 0 1024 1024" version="1.1" xmlns="http://www.w3.org/2000/svg" p-id="27233" xmlns:xlink="http://www.w3.org/1999/xlink" width="200" height="200"><path d="M875.383467 49.152a108.544 108.544 0 0 1 107.9296 108.270933v554.734934a108.544 108.544 0 0 1-108.270934 107.861333H662.391467l21.162666 77.482667h82.7392a38.7072 38.7072 0 1 1 0 77.4144H271.5648a38.7072 38.7072 0 1 1 0-77.4144h82.875733l21.0944-77.4144H162.816A108.680533 108.680533 0 0 1 54.613333 712.157867l0.341334-554.734934c0-59.5968 48.401067-108.3392 108.3392-108.3392zM536.9856 257.092267h-40.5504l-3.003733 0.477866a10.786133 10.786133 0 0 0-7.441067 8.6016l-4.027733 27.579734-0.955734 2.935466a10.6496 10.6496 0 0 1-6.826666 5.597867c-11.0592 3.003733-21.7088 7.509333-31.675734 13.243733a10.581333 10.581333 0 0 1-11.605333-0.682666l-20.957867-15.496534-3.413333-1.706666a10.581333 10.581333 0 0 0-10.4448 2.730666l-28.740267 28.808534-2.184533 3.140266a10.581333 10.581333 0 0 0 1.092267 10.6496l15.701333 21.230934 1.4336 2.730666c1.024 2.8672 0.682667 6.144-0.887467 8.874667a135.850667 135.850667 0 0 0-13.585066 32.9728 10.6496 10.6496 0 0 1-8.533334 7.9872l-24.302933 3.413333-2.935467 0.955734a10.6496 10.6496 0 0 0-6.144 9.557333v40.891733l0.477867 3.003734a10.786133 10.786133 0 0 0 8.6016 7.441066l25.1904 3.822934 2.935467 0.887466c2.730667 1.2288 4.642133 3.754667 5.5296 6.621867 3.4816 11.8784 8.3968 23.074133 14.5408 33.314133a10.581333 10.581333 0 0 1-0.546134 11.8784l-14.472533 19.524267-1.6384 3.413333a10.581333 10.581333 0 0 0 2.730667 10.4448l28.740266 28.740267 3.140267 2.184533c3.413333 1.570133 7.509333 1.2288 10.6496-1.092266l21.230933-15.701334 2.730667-1.4336a10.6496 10.6496 0 0 1 8.669867 0.682667c10.24 5.597867 21.435733 9.762133 32.9728 12.765867a10.103467 10.103467 0 0 1 7.850666 8.738133l3.822934 25.122133 0.955733 2.935467c1.706667 3.618133 5.3248 6.144 9.557333 6.144h40.823467l3.003733-0.477867a10.786133 10.786133 0 0 0 7.441067-8.6016l4.027733-28.125866 0.955734-2.798934a10.8544 10.8544 0 0 1 6.5536-5.597866 136.533333 136.533333 0 0 0 30.72-13.585067 10.513067 10.513067 0 0 1 11.605333 0.341333l22.254933 16.384 2.6624 1.570134c3.754667 1.4336 8.192 0.6144 11.127467-2.389334l28.740267-28.808533 2.184533-3.140267a10.581333 10.581333 0 0 0-1.092267-10.6496l-17.749333-24.234666-1.501867-2.594134a10.0352 10.0352 0 0 1 0.682667-8.3968c4.9152-9.4208 8.738133-19.592533 11.605333-30.173866a10.4448 10.4448 0 0 1 8.328534-7.850667l28.808533-4.369067 2.935467-0.887466a10.513067 10.513067 0 0 0 6.144-9.557334v-40.5504l-0.477867-3.003733a10.6496 10.6496 0 0 0-8.669867-7.509333l-30.378666-4.5056-2.798934-0.955734a10.513067 10.513067 0 0 1-5.5296-6.5536 143.496533 143.496533 0 0 0-12.356266-29.149866 10.24 10.24 0 0 1 0.477866-11.332267l17.476267-23.620267 1.6384-3.413333a10.581333 10.581333 0 0 0-2.730667-10.308267l-28.672-28.740266-3.208533-2.184534a10.581333 10.581333 0 0 0-10.6496 1.092267l-24.098133 17.8176-2.6624 1.365333a10.6496 10.6496 0 0 1-8.669867-0.8192 138.990933 138.990933 0 0 0-30.173867-12.356266 10.786133 10.786133 0 0 1-7.645866-8.3968L547.498667 266.24l-0.887467-2.935467a10.717867 10.717867 0 0 0-9.693867-6.144z m-18.0224 115.370666c42.325333 0 76.5952 34.133333 76.5952 76.5952 0 42.3936-34.2016 76.5952-76.5952 76.5952A76.458667 76.458667 0 0 1 442.368 449.1264c0-42.3936 34.133333-76.5952 76.5952-76.5952z" fill="#4E7DEC" p-id="27234"></path></svg>